<svg id="svg" version="1.1" xmlns="http://www.w3.org/2000/svg" xmlns:xlink="http://www.w3.org/1999/xlink" width="400" height="400" viewBox="0, 0, 400,400"><g id="svgg"><path id="path0" d="M260.429 173.054 C 259.973 173.634,259.612 174.309,259.627 174.554 C 259.642 174.799,259.849 174.595,260.088 174.100 C 260.327 173.605,260.655 173.200,260.818 173.200 C 260.981 173.200,261.218 172.930,261.345 172.600 C 261.687 171.708,261.360 171.870,260.429 173.054 M141.200 175.102 C 141.200 175.299,141.690 175.897,142.288 176.430 C 143.086 177.142,143.219 177.187,142.788 176.602 C 141.850 175.328,141.200 174.714,141.200 175.102 M105.200 183.153 C 105.200 183.774,106.355 184.978,106.659 184.674 C 106.781 184.552,106.502 184.047,106.040 183.551 C 105.575 183.052,105.200 182.874,105.200 183.153 M150.800 183.354 C 150.800 183.439,151.257 183.807,151.815 184.173 C 152.807 184.823,152.819 184.819,152.319 184.019 C 151.889 183.330,150.800 182.853,150.800 183.354 M247.800 184.076 L 247.000 184.904 247.878 184.450 C 248.802 183.972,249.474 183.183,248.924 183.224 C 248.746 183.237,248.240 183.620,247.800 184.076 M293.693 184.000 C 293.418 184.440,293.298 184.800,293.425 184.800 C 293.725 184.800,294.800 183.727,294.800 183.429 C 294.800 182.920,294.162 183.249,293.693 184.000 M110.246 189.776 C 110.368 190.093,110.908 190.641,111.446 190.994 C 111.985 191.346,112.319 191.807,112.189 192.018 C 112.059 192.228,112.235 192.400,112.580 192.400 C 113.107 192.400,113.127 192.272,112.707 191.600 C 112.432 191.160,112.060 190.800,111.880 190.800 C 111.700 190.800,111.664 190.620,111.800 190.400 C 111.936 190.180,111.767 190.000,111.424 190.000 C 111.081 190.000,110.800 189.820,110.800 189.600 C 110.800 189.380,110.626 189.200,110.413 189.200 C 110.199 189.200,110.125 189.459,110.246 189.776 M236.400 190.820 C 236.400 190.978,236.747 191.197,237.170 191.308 C 237.669 191.438,237.874 191.337,237.753 191.021 C 237.555 190.504,236.400 190.333,236.400 190.820 M164.083 191.900 C 163.801 192.285,163.678 192.375,163.809 192.100 C 164.100 191.489,162.567 191.406,162.193 192.012 C 162.023 192.287,154.025 192.415,138.069 192.400 C 124.941 192.387,114.058 192.381,113.884 192.388 C 113.711 192.395,113.801 192.651,114.084 192.958 C 114.368 193.265,114.780 193.410,115.000 193.281 C 115.220 193.152,115.157 193.346,114.860 193.712 C 114.403 194.276,114.418 194.475,114.960 195.017 C 115.547 195.604,115.603 195.596,115.632 194.929 C 115.650 194.504,115.748 194.410,115.866 194.702 C 115.977 194.979,116.278 195.079,116.534 194.926 C 116.790 194.772,116.753 194.951,116.451 195.323 C 115.846 196.069,122.301 202.914,126.043 205.495 C 127.009 206.162,128.143 207.088,128.562 207.553 C 128.981 208.019,129.536 208.400,129.796 208.400 C 130.392 208.400,132.547 210.787,132.233 211.100 C 132.105 211.228,132.000 211.193,132.000 211.021 C 132.000 210.849,131.582 210.982,131.071 211.317 C 130.560 211.652,129.705 211.987,129.171 212.063 C 128.637 212.138,128.102 212.330,127.983 212.490 C 127.863 212.649,127.373 212.840,126.893 212.913 C 126.413 212.986,125.896 213.171,125.744 213.323 C 125.591 213.475,125.137 213.600,124.733 213.600 C 124.330 213.600,124.000 213.780,124.000 214.000 C 124.000 214.220,123.539 214.400,122.976 214.400 C 122.396 214.400,122.060 214.573,122.200 214.800 C 122.340 215.027,122.004 215.200,121.424 215.200 C 120.861 215.200,120.400 215.380,120.400 215.600 C 120.400 215.820,120.051 216.000,119.624 216.000 C 119.197 216.000,118.736 216.180,118.600 216.400 C 118.464 216.620,118.076 216.800,117.738 216.800 C 117.400 216.800,116.601 217.172,115.962 217.627 C 115.323 218.082,114.800 218.354,114.800 218.230 C 114.800 218.107,113.615 218.635,112.167 219.403 C 110.719 220.171,109.361 220.800,109.150 220.800 C 108.939 220.800,108.380 221.160,107.908 221.600 C 107.138 222.318,106.376 222.586,105.500 222.447 C 105.335 222.421,105.200 222.558,105.200 222.751 C 105.200 222.945,104.660 223.327,104.000 223.600 C 103.340 223.873,102.800 224.255,102.800 224.449 C 102.800 224.642,102.440 224.800,102.000 224.800 C 101.560 224.800,101.200 224.980,101.200 225.200 C 101.200 225.420,100.840 225.600,100.400 225.600 C 99.960 225.600,99.600 225.780,99.600 226.000 C 99.600 226.220,99.319 226.400,98.976 226.400 C 98.633 226.400,98.464 226.580,98.600 226.800 C 98.736 227.020,98.487 227.200,98.047 227.200 C 97.607 227.200,97.134 227.383,96.996 227.607 C 96.858 227.830,96.577 227.909,96.372 227.783 C 96.168 227.656,96.000 227.722,96.000 227.928 C 96.000 228.134,95.460 228.527,94.800 228.800 C 94.140 229.073,93.600 229.455,93.600 229.649 C 93.600 229.842,93.259 230.000,92.843 230.000 C 92.426 230.000,91.987 230.256,91.867 230.570 C 91.747 230.883,91.052 231.423,90.324 231.770 C 89.596 232.116,88.370 232.940,87.600 233.599 C 86.830 234.259,85.928 234.799,85.596 234.799 C 85.264 234.800,84.768 235.160,84.493 235.600 C 84.218 236.040,83.824 236.400,83.617 236.400 C 83.410 236.400,82.737 236.868,82.121 237.440 C 81.504 238.012,80.460 238.759,79.800 239.100 C 79.140 239.440,78.365 240.052,78.077 240.460 C 77.790 240.867,77.284 241.200,76.954 241.200 C 76.623 241.200,76.464 241.380,76.600 241.600 C 76.736 241.820,76.702 242.000,76.524 242.000 C 76.346 242.001,75.677 242.451,75.038 243.000 C 74.399 243.550,73.724 244.000,73.538 244.000 C 73.352 244.000,73.197 244.315,73.194 244.700 C 73.189 245.204,73.098 245.259,72.868 244.896 C 72.630 244.521,72.305 244.649,71.604 245.396 C 71.085 245.948,70.827 246.405,71.030 246.412 C 71.234 246.419,71.089 246.606,70.708 246.827 C 70.328 247.049,69.956 247.178,69.882 247.115 C 69.808 247.052,69.291 247.492,68.734 248.093 C 68.176 248.695,67.603 249.100,67.460 248.993 C 67.317 248.887,67.288 248.918,67.397 249.063 C 67.724 249.501,66.752 250.400,65.951 250.400 C 65.538 250.400,65.245 250.558,65.300 250.751 C 65.431 251.211,62.946 253.600,62.337 253.600 C 62.078 253.600,61.975 253.708,62.107 253.841 C 62.240 253.973,61.291 255.125,60.000 256.400 C 58.709 257.675,57.760 258.827,57.893 258.959 C 58.025 259.092,57.910 259.200,57.638 259.200 C 57.095 259.200,55.740 260.396,56.271 260.406 C 56.452 260.409,56.330 260.583,56.000 260.792 C 55.670 261.000,55.399 261.402,55.398 261.685 C 55.397 261.968,55.009 262.180,54.537 262.155 C 54.003 262.128,53.520 262.456,53.261 263.025 C 52.880 263.862,52.930 263.924,53.855 263.756 C 54.486 263.641,54.768 263.728,54.608 263.986 C 54.468 264.214,54.081 264.400,53.749 264.400 C 53.353 264.400,53.224 264.644,53.372 265.112 C 53.513 265.557,53.298 266.041,52.799 266.401 C 52.360 266.717,52.000 267.117,52.000 267.288 C 52.000 267.460,61.450 267.600,73.000 267.600 C 84.886 267.600,94.000 267.447,94.000 267.247 C 94.000 267.052,94.464 266.805,95.031 266.696 C 95.950 266.521,96.036 266.602,95.823 267.450 C 95.689 267.984,95.763 268.400,95.992 268.400 C 96.217 268.400,96.421 267.995,96.446 267.500 C 96.552 265.430,97.083 264.400,98.043 264.400 C 98.459 264.400,98.800 264.190,98.800 263.933 C 98.800 263.415,99.371 263.854,99.450 264.433 C 99.478 264.635,99.523 264.924,99.550 265.076 C 99.578 265.229,99.883 265.004,100.230 264.576 C 100.576 264.149,100.728 264.053,100.568 264.362 C 100.174 265.122,101.223 264.494,101.891 263.570 C 102.161 263.197,102.842 262.776,103.406 262.634 C 104.082 262.465,104.391 262.143,104.315 261.689 C 104.224 261.146,104.454 261.024,105.400 261.111 C 106.318 261.197,106.459 261.128,106.000 260.818 C 105.526 260.497,105.636 260.411,106.524 260.406 C 107.170 260.403,107.542 260.230,107.400 260.000 C 107.264 259.780,107.523 259.600,107.976 259.600 C 108.429 259.600,108.800 259.411,108.800 259.179 C 108.800 258.948,109.357 258.564,110.039 258.327 C 110.947 258.010,111.134 257.804,110.739 257.554 C 110.343 257.303,110.426 257.211,111.051 257.206 C 111.519 257.203,112.126 256.930,112.400 256.600 C 112.674 256.270,113.236 256.000,113.649 256.000 C 114.062 256.000,114.400 255.790,114.400 255.533 C 114.400 255.277,114.517 255.184,114.660 255.327 C 114.804 255.470,115.122 255.312,115.368 254.976 C 115.614 254.639,116.217 254.334,116.708 254.297 C 117.198 254.260,117.600 253.987,117.600 253.691 C 117.600 253.395,117.765 253.255,117.968 253.380 C 118.170 253.505,118.598 253.345,118.919 253.023 C 119.241 252.702,120.245 252.118,121.152 251.725 C 122.058 251.333,122.800 250.874,122.800 250.706 C 122.800 250.538,123.160 250.400,123.600 250.400 C 124.040 250.400,124.400 250.220,124.400 250.000 C 124.400 249.780,124.683 249.600,125.029 249.600 C 125.374 249.600,125.929 249.328,126.261 248.996 C 126.593 248.664,127.030 248.495,127.232 248.620 C 127.435 248.745,127.600 248.657,127.600 248.424 C 127.600 248.191,127.960 248.000,128.400 248.000 C 128.840 248.000,129.200 247.820,129.200 247.600 C 129.200 247.380,129.560 247.200,130.000 247.200 C 130.440 247.200,130.800 247.020,130.800 246.800 C 130.800 246.580,131.340 246.400,132.000 246.400 C 132.660 246.400,133.200 246.264,133.200 246.098 C 133.200 245.748,135.029 244.912,136.200 244.727 C 136.640 244.657,137.090 244.510,137.200 244.400 C 137.678 243.922,139.239 243.200,139.795 243.200 C 140.128 243.200,140.400 243.020,140.400 242.800 C 140.400 242.580,140.762 242.400,141.205 242.400 C 141.648 242.400,142.323 242.231,142.705 242.024 C 143.583 241.549,145.585 241.049,146.500 241.075 C 146.885 241.087,147.200 240.979,147.200 240.835 C 147.200 240.692,148.055 240.340,149.100 240.053 C 150.145 239.765,151.540 239.323,152.200 239.070 C 152.860 238.817,153.554 238.659,153.742 238.719 C 153.930 238.779,154.296 238.652,154.555 238.438 C 154.813 238.223,155.511 237.959,156.106 237.851 C 156.700 237.744,157.340 237.561,157.528 237.445 C 157.715 237.329,158.541 237.189,159.362 237.133 C 160.184 237.078,160.944 236.890,161.052 236.716 C 161.159 236.542,161.766 236.400,162.400 236.400 C 163.034 236.400,163.664 236.220,163.800 236.000 C 163.936 235.780,164.847 235.600,165.824 235.600 C 166.801 235.600,167.600 235.420,167.600 235.200 C 167.600 234.978,168.656 234.800,169.967 234.800 C 171.268 234.800,172.393 234.632,172.467 234.427 C 172.540 234.222,173.725 233.999,175.100 233.933 C 176.475 233.866,177.600 233.674,177.600 233.506 C 177.600 233.338,179.051 233.200,180.824 233.200 C 182.871 233.200,183.957 233.054,183.800 232.800 C 183.639 232.540,185.840 232.385,190.076 232.357 C 197.581 232.307,198.718 232.241,199.753 231.797 C 200.199 231.605,200.808 231.662,201.248 231.937 C 201.736 232.242,204.376 232.400,208.971 232.400 C 212.811 232.400,216.047 232.553,216.162 232.739 C 216.277 232.925,217.679 233.116,219.277 233.163 C 220.875 233.209,222.276 233.375,222.391 233.532 C 222.506 233.688,223.770 233.876,225.200 233.949 C 226.630 234.022,228.103 234.244,228.474 234.441 C 228.844 234.639,229.663 234.800,230.294 234.800 C 230.924 234.800,231.611 234.963,231.820 235.163 C 232.029 235.363,233.100 235.623,234.200 235.742 C 237.327 236.079,239.200 236.462,239.200 236.766 C 239.200 236.918,239.949 237.088,240.864 237.142 C 241.779 237.196,242.847 237.411,243.237 237.620 C 243.628 237.829,244.330 238.000,244.797 238.000 C 245.265 238.000,245.560 238.142,245.452 238.315 C 245.345 238.488,245.732 238.670,246.311 238.717 C 246.891 238.765,247.544 238.984,247.762 239.202 C 247.981 239.421,248.743 239.600,249.456 239.600 C 250.169 239.600,250.864 239.780,251.000 240.000 C 251.136 240.220,251.657 240.400,252.157 240.400 C 252.657 240.400,253.192 240.525,253.345 240.678 C 253.649 240.982,254.311 241.161,256.300 241.480 C 257.015 241.594,257.600 241.848,257.600 242.044 C 257.600 242.240,258.140 242.400,258.800 242.400 C 259.460 242.400,260.000 242.580,260.000 242.800 C 260.000 243.020,260.371 243.200,260.824 243.200 C 261.277 243.200,261.536 243.380,261.400 243.600 C 261.190 243.940,262.309 244.204,263.300 244.047 C 263.465 244.021,263.600 244.180,263.600 244.400 C 263.600 244.620,264.061 244.800,264.624 244.800 C 265.204 244.800,265.540 244.973,265.400 245.200 C 265.264 245.420,265.513 245.600,265.953 245.600 C 266.393 245.600,266.864 245.780,267.000 246.000 C 267.136 246.220,267.642 246.404,268.124 246.409 C 268.606 246.414,269.450 246.770,270.000 247.200 C 270.550 247.630,271.405 247.986,271.900 247.991 C 272.395 247.996,272.800 248.180,272.800 248.400 C 272.800 248.620,273.070 248.800,273.400 248.800 C 273.730 248.800,274.000 248.980,274.000 249.200 C 274.000 249.420,274.360 249.600,274.800 249.600 C 275.240 249.600,275.600 249.780,275.600 250.000 C 275.600 250.220,275.960 250.400,276.400 250.400 C 276.840 250.400,277.200 250.580,277.200 250.800 C 277.200 251.020,277.470 251.200,277.800 251.200 C 278.130 251.200,278.400 251.380,278.400 251.600 C 278.400 251.820,278.856 252.000,279.413 252.000 C 279.969 252.000,280.528 252.269,280.654 252.598 C 280.781 252.926,281.018 253.113,281.181 253.012 C 281.345 252.910,281.859 253.181,282.323 253.614 C 282.787 254.046,283.474 254.400,283.850 254.400 C 284.226 254.400,284.413 254.520,284.266 254.668 C 283.891 255.043,287.226 256.876,287.849 256.637 C 288.167 256.515,288.275 256.659,288.137 257.020 C 287.986 257.414,288.186 257.600,288.757 257.600 C 289.221 257.600,289.600 257.791,289.600 258.024 C 289.600 258.257,289.774 258.340,289.987 258.208 C 290.200 258.077,290.592 258.318,290.858 258.745 C 291.125 259.171,291.555 259.439,291.815 259.339 C 292.075 259.239,292.834 259.617,293.502 260.179 C 294.169 260.740,294.992 261.200,295.331 261.200 C 295.669 261.200,296.052 261.533,296.181 261.939 C 296.474 262.863,297.913 263.543,299.261 263.395 C 300.740 263.233,301.390 263.731,300.883 264.637 C 300.564 265.208,300.655 265.527,301.298 266.085 C 302.318 266.970,302.443 266.977,302.119 266.134 C 301.934 265.651,302.009 265.558,302.394 265.796 C 302.757 266.021,302.828 265.970,302.621 265.635 C 302.455 265.366,302.067 265.242,301.760 265.360 C 301.437 265.484,301.200 265.326,301.200 264.987 C 301.200 264.664,301.483 264.400,301.829 264.400 C 302.735 264.400,303.711 265.498,303.337 266.097 C 302.736 267.058,302.830 267.675,303.531 267.380 C 304.866 266.816,306.000 266.712,306.000 267.153 C 306.000 267.477,311.805 267.600,327.000 267.600 C 338.550 267.600,348.000 267.486,348.000 267.347 C 348.000 267.208,347.623 266.767,347.163 266.368 C 346.703 265.969,346.434 265.468,346.566 265.255 C 346.697 265.043,346.579 264.777,346.302 264.666 C 346.026 264.554,346.216 264.449,346.724 264.432 C 347.232 264.414,347.558 264.544,347.449 264.720 C 347.341 264.896,347.601 265.258,348.027 265.524 C 348.541 265.845,348.769 265.862,348.701 265.574 C 348.537 264.868,345.851 262.062,345.210 261.925 C 344.582 261.792,343.206 260.301,343.191 259.737 C 343.186 259.552,342.473 258.787,341.606 258.037 C 340.740 257.288,340.124 256.523,340.239 256.337 C 340.353 256.152,340.284 256.000,340.085 256.000 C 339.886 256.000,338.278 254.605,336.511 252.900 C 334.744 251.195,332.443 249.080,331.397 248.200 C 330.352 247.320,329.062 246.195,328.530 245.700 C 327.999 245.205,327.474 244.800,327.365 244.800 C 327.112 244.800,326.307 244.134,324.618 242.527 C 323.882 241.826,323.176 241.357,323.049 241.484 C 322.923 241.611,322.705 241.419,322.567 241.057 C 322.428 240.696,322.053 240.400,321.734 240.400 C 321.414 240.400,321.252 240.240,321.373 240.044 C 321.494 239.848,320.989 239.401,320.252 239.051 C 319.514 238.701,318.683 238.141,318.406 237.807 C 318.129 237.473,317.719 237.200,317.494 237.200 C 317.270 237.200,316.600 236.705,316.005 236.100 C 315.409 235.495,314.670 234.947,314.361 234.883 C 314.053 234.819,313.501 234.414,313.136 233.983 C 312.771 233.552,312.187 233.200,311.839 233.200 C 311.491 233.200,310.982 232.840,310.707 232.400 C 310.432 231.960,309.891 231.600,309.504 231.600 C 309.117 231.600,308.800 231.420,308.800 231.200 C 308.800 230.980,308.519 230.800,308.176 230.800 C 307.833 230.800,307.664 230.620,307.800 230.400 C 307.936 230.180,307.844 230.000,307.596 230.000 C 307.347 230.000,306.374 229.470,305.433 228.823 C 304.493 228.176,303.246 227.527,302.664 227.380 C 302.082 227.234,301.705 226.954,301.826 226.757 C 301.948 226.561,301.677 226.400,301.224 226.400 C 300.771 226.400,300.400 226.220,300.400 226.000 C 300.400 225.780,300.040 225.600,299.600 225.600 C 299.160 225.600,298.800 225.420,298.800 225.200 C 298.800 224.980,298.517 224.800,298.171 224.800 C 297.826 224.800,297.271 224.528,296.939 224.196 C 296.607 223.864,296.170 223.695,295.968 223.820 C 295.765 223.945,295.600 223.857,295.600 223.624 C 295.600 223.391,295.330 223.200,295.000 223.200 C 294.670 223.200,294.400 223.020,294.400 222.800 C 294.400 222.580,294.130 222.400,293.800 222.400 C 293.470 222.400,293.200 222.220,293.200 222.000 C 293.200 221.780,292.938 221.600,292.618 221.600 C 292.297 221.600,291.119 221.060,290.000 220.400 C 288.881 219.740,287.703 219.200,287.382 219.200 C 287.062 219.200,286.800 219.020,286.800 218.800 C 286.800 218.580,286.485 218.396,286.100 218.391 C 285.715 218.386,284.950 218.030,284.400 217.600 C 283.850 217.170,282.995 216.814,282.500 216.809 C 282.005 216.804,281.600 216.620,281.600 216.400 C 281.600 216.180,281.240 216.000,280.800 216.000 C 280.360 216.000,280.000 215.820,280.000 215.600 C 280.000 215.380,279.460 215.200,278.800 215.200 C 278.140 215.200,277.600 215.020,277.600 214.800 C 277.600 214.580,277.240 214.400,276.800 214.400 C 276.360 214.400,276.000 214.220,276.000 214.000 C 276.000 213.780,275.640 213.600,275.200 213.600 C 274.760 213.600,274.400 213.390,274.400 213.133 C 274.400 212.877,274.287 212.780,274.149 212.917 C 274.011 213.055,273.291 212.915,272.549 212.605 C 271.807 212.294,271.200 212.150,271.200 212.282 C 271.200 212.415,270.871 212.227,270.470 211.863 C 270.068 211.500,269.258 211.163,268.670 211.114 C 267.417 211.010,267.244 210.167,268.400 209.800 C 268.840 209.660,269.200 209.400,269.200 209.222 C 269.200 209.043,269.702 208.689,270.315 208.435 C 270.928 208.181,271.764 207.529,272.171 206.987 C 272.579 206.444,273.167 206.000,273.480 206.000 C 273.792 206.000,273.944 205.833,273.818 205.629 C 273.692 205.425,273.939 205.146,274.367 205.010 C 275.339 204.702,284.800 195.462,284.800 194.821 C 284.800 194.564,285.006 194.480,285.258 194.636 C 285.583 194.837,285.640 194.581,285.453 193.760 C 285.241 192.829,285.274 192.739,285.618 193.306 C 285.991 193.920,286.120 193.937,286.623 193.434 C 287.272 192.785,287.407 191.200,286.813 191.200 C 286.599 191.200,286.525 191.460,286.647 191.778 C 286.914 192.475,237.854 192.734,237.423 192.038 C 237.280 191.807,236.752 191.881,236.093 192.225 C 234.776 192.912,234.000 192.959,234.000 192.351 C 234.000 192.033,233.832 192.041,233.424 192.380 C 233.107 192.643,232.935 193.085,233.041 193.363 C 233.147 193.640,232.957 193.867,232.617 193.867 C 232.278 193.867,232.000 193.627,232.000 193.333 C 232.000 193.040,231.801 192.800,231.557 192.800 C 231.314 192.800,231.207 193.040,231.319 193.334 C 231.465 193.713,231.158 193.857,230.262 193.834 C 229.272 193.807,229.025 193.951,229.118 194.500 C 229.248 195.278,228.400 195.440,227.725 194.765 C 227.426 194.466,227.210 194.460,227.032 194.748 C 226.890 194.977,226.510 195.064,226.187 194.940 C 225.864 194.816,225.600 194.914,225.600 195.157 C 225.600 195.401,225.208 195.600,224.728 195.600 C 224.249 195.600,223.304 195.768,222.628 195.973 C 220.194 196.712,218.180 197.204,217.115 197.319 C 216.518 197.384,215.903 197.563,215.748 197.718 C 215.593 197.873,214.543 198.000,213.413 198.000 C 212.284 198.000,211.187 198.173,210.975 198.385 C 210.764 198.596,208.433 198.809,205.795 198.856 C 202.929 198.908,200.884 199.115,200.712 199.372 C 200.512 199.669,200.207 199.674,199.712 199.387 C 199.320 199.160,196.750 198.918,194.000 198.850 C 191.251 198.781,188.894 198.552,188.764 198.341 C 188.633 198.130,188.363 197.989,188.163 198.026 C 187.051 198.236,183.585 197.948,183.763 197.660 C 183.878 197.474,183.440 197.306,182.789 197.287 C 181.668 197.255,181.089 197.116,177.502 196.011 C 176.679 195.757,175.286 195.540,174.408 195.528 C 173.530 195.516,172.897 195.367,173.001 195.198 C 173.331 194.665,172.264 194.100,170.400 193.822 C 169.242 193.649,168.793 193.686,169.143 193.926 C 169.522 194.187,169.552 194.382,169.243 194.574 C 168.999 194.724,168.800 194.657,168.800 194.424 C 168.800 194.191,168.530 194.000,168.200 194.000 C 167.870 194.000,167.600 193.809,167.600 193.576 C 167.600 193.343,167.768 193.256,167.972 193.383 C 168.177 193.509,168.474 193.404,168.632 193.149 C 168.832 192.825,168.603 192.744,167.879 192.883 C 167.224 193.008,166.764 192.882,166.633 192.541 C 166.518 192.243,166.149 192.000,165.813 192.000 C 165.476 192.000,165.200 191.820,165.200 191.600 C 165.200 190.979,164.649 191.127,164.083 191.900 M234.826 191.769 C 234.439 192.235,234.502 192.298,235.177 192.122 C 235.630 192.004,236.000 191.748,236.000 191.553 C 236.000 191.014,235.354 191.132,234.826 191.769 M50.800 265.200 C 50.315 265.514,50.372 265.589,51.100 265.594 C 51.595 265.597,52.000 265.420,52.000 265.200 C 52.000 264.699,51.576 264.699,50.800 265.200 M97.704 265.394 C 97.385 265.757,97.351 266.046,97.611 266.206 C 97.832 266.343,97.909 266.623,97.783 266.828 C 97.394 267.457,97.870 267.240,98.451 266.523 C 98.906 265.963,98.907 265.903,98.457 266.173 C 98.042 266.423,97.978 266.300,98.184 265.650 C 98.497 264.666,98.393 264.611,97.704 265.394 M349.865 267.100 C 349.970 267.485,350.488 268.119,351.016 268.510 L 351.976 269.219 351.088 267.827 C 350.126 266.318,349.561 265.982,349.865 267.100 M48.769 267.500 C 48.753 267.665,48.675 268.139,48.597 268.552 C 48.493 269.108,48.573 269.187,48.904 268.856 C 49.473 268.287,49.644 267.200,49.165 267.200 C 48.964 267.200,48.786 267.335,48.769 267.500 " stroke="none" fill="#12c3d3" fill-rule="evenodd"></path><path id="path1" d="M184.200 0.275 C 182.660 0.366,181.229 0.612,181.020 0.820 C 180.811 1.029,179.787 1.200,178.744 1.200 C 177.701 1.200,176.736 1.380,176.600 1.600 C 176.464 1.820,175.643 2.000,174.776 2.000 C 173.909 2.000,173.200 2.180,173.200 2.400 C 173.200 2.620,172.480 2.800,171.600 2.800 C 170.720 2.800,170.000 2.980,170.000 3.200 C 170.000 3.420,169.381 3.600,168.624 3.600 C 167.867 3.600,167.136 3.780,167.000 4.000 C 166.864 4.220,166.223 4.400,165.576 4.400 C 164.929 4.400,164.400 4.580,164.400 4.800 C 164.400 5.020,163.950 5.200,163.400 5.200 C 162.850 5.200,162.400 5.380,162.400 5.600 C 162.400 5.820,161.860 6.000,161.200 6.000 C 160.540 6.000,160.000 6.180,160.000 6.400 C 160.000 6.620,159.460 6.800,158.800 6.800 C 158.140 6.800,157.600 6.980,157.600 7.200 C 157.600 7.420,157.240 7.600,156.800 7.600 C 156.360 7.600,156.000 7.780,156.000 8.000 C 156.000 8.220,155.460 8.400,154.800 8.400 C 154.140 8.400,153.600 8.580,153.600 8.800 C 153.600 9.020,153.240 9.200,152.800 9.200 C 152.360 9.200,152.000 9.380,152.000 9.600 C 152.000 9.820,151.685 10.006,151.300 10.013 C 150.547 10.026,146.348 12.013,145.385 12.812 C 145.063 13.079,144.800 13.177,144.800 13.030 C 144.800 12.882,144.003 13.310,143.028 13.981 C 142.053 14.651,141.063 15.200,140.828 15.200 C 140.593 15.200,140.400 15.380,140.400 15.600 C 140.400 15.820,140.164 16.000,139.875 16.000 C 139.587 16.000,138.964 16.360,138.492 16.800 C 138.020 17.240,137.356 17.600,137.017 17.600 C 136.678 17.600,136.400 17.750,136.400 17.932 C 136.400 18.115,135.905 18.519,135.300 18.830 C 134.695 19.140,133.909 19.711,133.553 20.097 C 133.197 20.484,132.652 20.800,132.341 20.800 C 132.031 20.800,131.517 21.160,131.200 21.600 C 130.883 22.040,130.476 22.400,130.296 22.400 C 130.116 22.400,129.242 23.120,128.353 24.000 C 127.464 24.880,126.564 25.600,126.354 25.600 C 125.877 25.600,125.307 26.121,118.413 32.848 C 115.342 35.845,112.943 38.410,113.082 38.548 C 113.220 38.687,113.045 38.800,112.694 38.800 C 112.342 38.800,111.945 39.143,111.812 39.563 C 111.679 39.983,111.295 40.431,110.959 40.560 C 110.624 40.689,110.461 40.976,110.598 41.197 C 110.735 41.419,110.657 41.600,110.424 41.600 C 110.191 41.600,110.000 41.787,110.000 42.016 C 110.000 42.245,109.280 43.117,108.400 43.954 C 107.520 44.791,106.800 45.684,106.800 45.938 C 106.800 46.192,106.634 46.400,106.431 46.400 C 106.228 46.400,105.850 47.042,105.591 47.827 C 105.332 48.612,105.027 49.160,104.913 49.046 C 104.798 48.932,104.435 49.108,104.105 49.438 C 103.775 49.768,103.613 50.147,103.746 50.279 C 103.879 50.412,103.675 50.777,103.294 51.090 C 102.880 51.429,102.843 51.535,103.200 51.353 C 103.715 51.090,103.723 51.141,103.255 51.719 C 102.955 52.089,102.522 52.275,102.293 52.134 C 102.038 51.976,101.998 52.073,102.189 52.382 C 102.385 52.700,102.113 53.221,101.455 53.786 C 100.416 54.679,100.415 54.689,101.205 55.404 C 101.700 55.852,102.000 55.941,102.000 55.638 C 102.000 55.371,102.180 55.264,102.400 55.400 C 102.620 55.536,102.800 55.444,102.800 55.197 C 102.800 54.920,102.473 54.850,101.953 55.015 C 101.338 55.210,101.158 55.135,101.296 54.742 C 101.400 54.444,101.780 54.225,102.139 54.255 C 102.498 54.285,102.693 54.150,102.572 53.955 C 102.451 53.760,102.588 53.597,102.876 53.593 C 103.164 53.588,111.941 53.592,122.381 53.600 C 141.164 53.615,142.479 53.702,141.750 54.881 C 141.437 55.387,142.589 55.251,143.120 54.720 C 143.384 54.456,143.597 54.051,143.594 53.820 C 143.591 53.589,143.413 53.670,143.200 54.000 C 142.918 54.436,142.811 54.457,142.806 54.076 C 142.803 53.788,142.620 53.664,142.400 53.800 C 142.180 53.936,142.000 53.833,142.000 53.571 C 142.000 53.258,142.444 53.167,143.300 53.306 C 144.427 53.489,144.734 53.337,145.600 52.170 C 146.150 51.428,146.881 50.817,147.225 50.811 C 147.568 50.805,148.252 50.255,148.745 49.589 C 149.237 48.923,149.811 48.483,150.020 48.612 C 150.229 48.742,150.400 48.657,150.400 48.424 C 150.400 48.191,150.730 48.000,151.132 48.000 C 151.535 48.000,152.098 47.564,152.383 47.032 C 152.679 46.480,153.136 46.154,153.447 46.273 C 153.747 46.389,154.104 46.195,154.239 45.844 C 154.373 45.492,154.645 45.304,154.842 45.426 C 155.039 45.548,155.200 45.501,155.200 45.323 C 155.200 45.145,156.010 44.569,157.000 44.044 C 157.990 43.519,158.800 42.934,158.800 42.744 C 158.800 42.555,159.160 42.400,159.600 42.400 C 160.040 42.400,160.400 42.252,160.400 42.071 C 160.400 41.889,161.075 41.567,161.900 41.355 C 162.774 41.130,163.354 40.755,163.290 40.455 C 163.228 40.166,163.375 40.061,163.625 40.215 C 164.005 40.450,165.595 39.843,168.495 38.356 C 168.877 38.160,169.440 38.000,169.746 38.000 C 170.052 38.000,170.511 37.749,170.766 37.441 C 171.021 37.134,171.583 36.975,172.015 37.088 C 172.449 37.201,172.800 37.094,172.800 36.847 C 172.800 36.601,173.340 36.400,174.000 36.400 C 174.660 36.400,175.200 36.220,175.200 36.000 C 175.200 35.780,175.725 35.600,176.367 35.600 C 177.008 35.600,177.593 35.426,177.667 35.213 C 177.740 35.000,178.399 34.780,179.130 34.725 C 179.862 34.670,180.548 34.485,180.654 34.313 C 180.760 34.141,181.557 34.000,182.424 34.000 C 183.291 34.000,184.000 33.820,184.000 33.600 C 184.000 33.380,184.990 33.200,186.200 33.200 C 187.410 33.200,188.400 33.020,188.400 32.800 C 188.400 32.553,190.440 32.400,193.720 32.400 C 197.216 32.400,199.199 32.241,199.503 31.937 C 199.843 31.597,200.108 31.592,200.501 31.918 C 200.825 32.187,202.906 32.365,205.786 32.369 C 208.498 32.374,210.713 32.553,210.948 32.788 C 211.175 33.015,212.404 33.200,213.680 33.200 C 214.960 33.200,216.000 33.379,216.000 33.600 C 216.000 33.820,216.720 34.000,217.600 34.000 C 218.480 34.000,219.200 34.180,219.200 34.400 C 219.200 34.620,219.920 34.800,220.800 34.800 C 221.680 34.800,222.400 34.980,222.400 35.200 C 222.400 35.420,223.120 35.600,224.000 35.600 C 224.880 35.600,225.600 35.780,225.600 36.000 C 225.600 36.220,225.960 36.400,226.400 36.400 C 226.840 36.400,227.200 36.580,227.200 36.800 C 227.200 37.020,227.545 37.200,227.967 37.200 C 228.389 37.200,229.575 37.561,230.603 38.001 C 231.631 38.442,232.636 38.701,232.836 38.578 C 233.036 38.454,233.200 38.633,233.200 38.976 C 233.200 39.319,233.436 39.600,233.725 39.600 C 234.014 39.600,235.183 40.050,236.323 40.600 C 237.463 41.150,238.667 41.600,238.998 41.600 C 239.329 41.600,239.600 41.780,239.600 42.000 C 239.600 42.220,239.960 42.400,240.400 42.400 C 240.840 42.400,241.200 42.558,241.200 42.751 C 241.200 42.945,241.740 43.327,242.400 43.600 C 243.060 43.873,243.600 44.255,243.600 44.449 C 243.600 44.642,243.836 44.800,244.125 44.800 C 244.413 44.800,245.043 45.167,245.525 45.616 C 246.092 46.144,246.405 46.250,246.414 45.916 C 246.422 45.632,246.656 45.811,246.935 46.313 C 247.214 46.814,247.567 47.099,247.721 46.946 C 247.874 46.792,248.014 47.012,248.032 47.433 C 248.050 47.883,248.149 47.987,248.270 47.685 C 248.404 47.350,249.172 47.876,250.461 49.185 C 251.552 50.293,252.626 51.200,252.848 51.200 C 253.070 51.200,254.251 52.199,255.472 53.420 C 256.694 54.641,257.783 55.550,257.894 55.439 C 258.005 55.329,257.804 54.947,257.448 54.590 C 257.091 54.234,256.800 53.821,256.800 53.671 C 256.800 53.522,265.564 53.451,276.276 53.514 C 286.987 53.576,296.032 53.503,296.376 53.350 C 296.719 53.198,297.180 53.114,297.400 53.165 C 297.620 53.216,297.589 53.042,297.331 52.780 C 297.073 52.517,296.958 52.054,297.074 51.751 C 297.190 51.448,297.086 51.200,296.843 51.200 C 296.599 51.200,296.400 50.922,296.400 50.582 C 296.400 50.242,295.964 49.528,295.431 48.995 C 294.898 48.462,294.349 47.669,294.211 47.233 C 294.072 46.797,293.585 46.322,293.127 46.177 C 292.669 46.031,292.478 45.797,292.703 45.656 C 292.964 45.492,292.911 45.214,292.556 44.884 C 292.250 44.601,291.999 44.511,291.998 44.684 C 291.997 44.858,291.488 44.234,290.867 43.298 C 290.246 42.362,289.607 41.726,289.448 41.886 C 289.288 42.045,289.271 41.879,289.411 41.517 C 289.663 40.860,287.092 38.000,286.250 38.000 C 286.039 38.000,285.984 37.882,286.128 37.739 C 286.416 37.451,277.906 28.910,275.428 27.000 C 274.572 26.340,273.277 25.215,272.549 24.500 C 271.822 23.785,271.041 23.200,270.813 23.200 C 270.586 23.200,270.400 23.020,270.400 22.800 C 270.400 22.580,270.132 22.400,269.803 22.400 C 269.475 22.400,268.982 22.040,268.707 21.600 C 268.432 21.160,267.979 20.800,267.700 20.800 C 267.421 20.800,266.628 20.260,265.937 19.600 C 265.246 18.940,264.438 18.400,264.141 18.400 C 263.843 18.400,263.600 18.220,263.600 18.000 C 263.600 17.780,263.240 17.600,262.800 17.600 C 262.360 17.600,262.000 17.450,262.000 17.268 C 262.000 17.085,261.505 16.680,260.900 16.368 C 260.295 16.056,259.710 15.710,259.600 15.599 C 258.995 14.988,255.079 12.820,253.475 12.207 C 252.450 11.816,251.411 11.254,251.165 10.958 C 250.920 10.663,250.108 10.306,249.360 10.166 C 248.612 10.026,248.000 9.751,248.000 9.555 C 248.000 9.360,247.640 9.200,247.200 9.200 C 246.760 9.200,246.400 9.020,246.400 8.800 C 246.400 8.580,245.860 8.400,245.200 8.400 C 244.540 8.400,244.000 8.220,244.000 8.000 C 244.000 7.780,243.640 7.600,243.200 7.600 C 242.760 7.600,242.400 7.420,242.400 7.200 C 242.400 6.980,241.860 6.800,241.200 6.800 C 240.540 6.800,240.000 6.620,240.000 6.400 C 240.000 6.180,239.561 6.000,239.024 6.000 C 238.487 6.000,237.936 5.820,237.800 5.600 C 237.664 5.380,237.113 5.200,236.576 5.200 C 236.039 5.200,235.600 5.020,235.600 4.800 C 235.600 4.580,235.060 4.400,234.400 4.400 C 233.740 4.400,233.200 4.220,233.200 4.000 C 233.200 3.780,232.480 3.600,231.600 3.600 C 230.720 3.600,230.000 3.420,230.000 3.200 C 230.000 2.980,229.280 2.800,228.400 2.800 C 227.520 2.800,226.800 2.620,226.800 2.400 C 226.800 2.180,226.080 2.000,225.200 2.000 C 224.320 2.000,223.600 1.820,223.600 1.600 C 223.600 1.380,222.625 1.200,221.433 1.200 C 220.096 1.200,219.205 1.015,219.106 0.717 C 218.944 0.233,190.897 -0.122,184.200 0.275 M298.151 54.479 C 297.985 54.748,298.059 54.811,298.338 54.638 C 298.615 54.467,298.800 54.613,298.800 55.000 C 298.800 55.356,298.636 55.546,298.435 55.422 C 297.923 55.105,298.150 56.310,298.707 56.867 C 299.052 57.212,299.316 57.202,299.772 56.823 C 300.307 56.379,300.309 56.251,299.785 55.728 C 299.459 55.402,299.283 54.989,299.394 54.810 C 299.505 54.630,299.332 54.383,299.011 54.259 C 298.689 54.136,298.302 54.235,298.151 54.479 M140.300 55.233 C 139.501 56.108,139.379 56.584,140.062 56.162 C 140.348 55.985,140.415 56.052,140.238 56.338 C 140.081 56.592,139.671 56.800,139.327 56.800 C 138.807 56.800,138.789 56.904,139.219 57.423 C 139.638 57.928,139.639 58.022,139.221 57.923 C 138.938 57.855,138.649 58.160,138.579 58.600 C 138.465 59.314,138.546 59.292,139.327 58.400 C 139.808 57.850,140.720 56.995,141.355 56.500 C 142.227 55.819,142.338 55.600,141.811 55.600 C 141.356 55.600,141.194 55.392,141.345 55.000 C 141.657 54.187,141.153 54.300,140.300 55.233 M258.573 55.500 C 258.691 56.305,259.796 56.654,260.192 56.012 C 260.340 55.774,260.222 55.629,259.930 55.690 C 259.638 55.751,259.445 55.575,259.500 55.300 C 259.555 55.025,259.346 54.800,259.035 54.800 C 258.725 54.800,258.517 55.115,258.573 55.500 M100.164 55.937 C 99.963 56.082,99.544 56.695,99.232 57.300 C 98.920 57.905,98.515 58.400,98.332 58.400 C 98.150 58.400,98.003 58.715,98.006 59.100 C 98.011 59.648,98.087 59.681,98.358 59.255 C 98.600 58.872,98.768 58.845,98.922 59.165 C 99.058 59.450,99.100 59.429,99.033 59.110 C 98.974 58.829,99.269 58.299,99.689 57.930 C 100.109 57.562,100.441 57.157,100.426 57.030 C 100.350 56.362,100.443 56.249,100.717 56.679 C 100.884 56.942,101.234 57.026,101.495 56.865 C 101.831 56.657,101.760 56.443,101.248 56.123 C 100.852 55.876,100.364 55.792,100.164 55.937 M300.600 58.000 C 300.998 58.440,301.392 58.800,301.476 58.800 C 301.560 58.800,301.435 58.440,301.200 58.000 C 300.965 57.560,300.570 57.200,300.324 57.200 C 300.078 57.200,300.202 57.560,300.600 58.000 M260.426 58.231 C 260.954 58.868,261.600 58.986,261.600 58.447 C 261.600 58.252,261.230 57.996,260.777 57.878 C 260.102 57.702,260.039 57.765,260.426 58.231 M301.600 59.548 C 301.600 59.771,301.783 60.066,302.007 60.204 C 302.230 60.342,302.294 60.668,302.148 60.928 C 301.946 61.288,302.005 61.287,302.396 60.926 C 302.811 60.542,302.784 60.327,302.254 59.797 C 301.894 59.437,301.600 59.325,301.600 59.548 M136.800 60.000 C 136.800 60.220,137.070 60.400,137.400 60.400 C 137.730 60.400,138.000 60.220,138.000 60.000 C 138.000 59.780,137.730 59.600,137.400 59.600 C 137.070 59.600,136.800 59.780,136.800 60.000 M262.400 60.125 C 262.400 60.209,262.760 60.693,263.200 61.200 C 263.824 61.919,264.000 61.980,264.000 61.475 C 264.000 61.119,263.640 60.635,263.200 60.400 C 262.760 60.165,262.400 60.041,262.400 60.125 M96.091 62.900 C 95.410 64.784,95.504 65.294,96.226 63.630 C 96.553 62.877,96.766 62.099,96.701 61.902 C 96.635 61.705,96.360 62.154,96.091 62.900 M134.800 62.957 C 134.800 63.264,134.530 63.618,134.200 63.745 C 133.870 63.871,133.600 64.278,133.600 64.649 C 133.600 65.197,133.748 65.151,134.400 64.400 C 135.134 63.554,135.480 62.400,135.000 62.400 C 134.890 62.400,134.800 62.651,134.800 62.957 M264.800 62.961 C 264.800 63.133,265.160 63.731,265.600 64.291 C 266.040 64.850,266.400 65.096,266.400 64.837 C 266.400 64.578,266.040 63.980,265.600 63.508 C 265.160 63.036,264.800 62.790,264.800 62.961 M304.000 63.758 C 304.000 64.365,305.404 66.800,305.754 66.800 C 305.987 66.800,305.956 66.596,305.680 66.320 C 305.416 66.056,305.200 65.593,305.200 65.291 C 305.200 64.990,304.930 64.473,304.600 64.143 C 304.270 63.813,304.000 63.640,304.000 63.758 M94.386 66.301 C 94.085 66.905,93.774 67.535,93.695 67.700 C 93.617 67.865,93.743 68.000,93.976 68.000 C 94.209 68.000,94.400 67.676,94.400 67.280 C 94.400 66.884,94.613 66.347,94.873 66.087 C 95.134 65.826,95.254 65.521,95.141 65.407 C 95.027 65.294,94.688 65.696,94.386 66.301 M307.217 70.800 C 307.231 71.517,308.365 73.600,308.386 72.946 C 308.394 72.696,308.131 71.976,307.802 71.346 C 307.474 70.716,307.210 70.470,307.217 70.800 M123.307 82.100 C 122.767 82.790,122.391 84.453,122.837 84.177 C 123.037 84.054,123.200 83.639,123.200 83.256 C 123.200 82.873,123.416 82.344,123.680 82.080 C 123.944 81.816,124.056 81.600,123.929 81.600 C 123.802 81.600,123.522 81.825,123.307 82.100 M116.243 114.633 C 115.904 115.517,115.938 117.395,116.288 117.046 C 116.544 116.790,116.810 114.000,116.578 114.000 C 116.527 114.000,116.376 114.285,116.243 114.633 M283.371 115.600 C 283.371 116.040,283.513 116.400,283.686 116.400 C 283.859 116.400,284.000 116.040,284.000 115.600 C 284.000 115.160,283.859 114.800,283.686 114.800 C 283.513 114.800,283.371 115.160,283.371 115.600 " stroke="none" fill="#26ef9f" fill-rule="evenodd"></path><path id="path2" d="M343.867 260.933 C 344.254 261.447,344.805 261.867,345.092 261.867 C 345.420 261.867,345.288 261.519,344.737 260.933 C 344.255 260.420,343.704 260.000,343.512 260.000 C 343.320 260.000,343.479 260.420,343.867 260.933 M54.982 260.915 C 54.078 261.964,53.999 262.329,54.698 262.227 C 55.084 262.170,55.400 261.909,55.400 261.647 C 55.400 261.385,55.670 261.000,56.000 260.792 C 56.533 260.454,56.533 260.413,56.000 260.421 C 55.670 260.426,55.212 260.649,54.982 260.915 M104.217 261.172 C 103.944 261.614,104.575 262.092,104.944 261.722 C 105.325 261.342,105.254 260.800,104.824 260.800 C 104.617 260.800,104.344 260.968,104.217 261.172 M52.010 263.991 C 51.497 264.436,51.285 264.800,51.539 264.800 C 51.792 264.800,52.000 264.980,52.000 265.200 C 52.000 265.420,51.717 265.600,51.371 265.600 C 50.536 265.600,49.635 266.539,49.477 267.575 C 49.407 268.035,49.109 268.633,48.816 268.905 C 48.392 269.299,48.340 269.298,48.565 268.900 C 48.720 268.625,48.734 268.400,48.595 268.400 C 48.206 268.400,47.215 269.482,47.418 269.685 C 47.518 269.784,47.163 270.099,46.630 270.384 C 46.097 270.669,45.552 271.337,45.419 271.868 C 45.286 272.398,45.002 272.725,44.788 272.593 C 44.575 272.461,44.400 272.648,44.400 273.008 C 44.400 273.368,43.680 274.354,42.800 275.200 C 41.920 276.046,41.200 276.930,41.200 277.165 C 41.200 277.401,40.840 277.818,40.400 278.093 C 39.960 278.368,39.600 278.819,39.600 279.096 C 39.600 279.373,39.375 279.603,39.100 279.606 C 38.767 279.610,38.800 279.742,39.200 280.000 C 39.530 280.213,39.620 280.396,39.400 280.407 C 38.816 280.436,37.252 281.816,37.116 282.423 C 37.052 282.710,36.505 283.479,35.900 284.132 C 35.295 284.784,34.800 285.522,34.800 285.771 C 34.800 286.020,34.440 286.483,34.000 286.800 C 33.560 287.117,33.200 287.573,33.200 287.813 C 33.200 288.053,32.885 288.605,32.500 289.040 C 32.115 289.475,31.742 290.094,31.670 290.416 C 31.599 290.737,31.194 291.372,30.770 291.826 C 30.347 292.280,30.000 292.865,30.000 293.126 C 30.000 293.387,29.820 293.600,29.600 293.600 C 29.380 293.600,29.200 293.870,29.200 294.200 C 29.200 294.530,29.065 294.802,28.900 294.805 C 28.735 294.807,28.256 295.527,27.836 296.405 C 27.415 297.282,26.920 298.000,26.736 298.000 C 26.551 298.000,26.400 298.272,26.400 298.605 C 26.400 299.170,25.664 300.748,25.190 301.200 C 25.075 301.310,24.535 302.255,23.991 303.300 C 23.447 304.345,22.866 305.200,22.701 305.200 C 22.535 305.200,22.400 305.560,22.400 306.000 C 22.400 306.440,22.220 306.800,22.000 306.800 C 21.780 306.800,21.600 307.160,21.600 307.600 C 21.600 308.040,21.420 308.400,21.200 308.400 C 20.980 308.400,20.800 308.760,20.800 309.200 C 20.800 309.640,20.620 310.000,20.400 310.000 C 20.180 310.000,20.000 310.345,20.000 310.767 C 20.000 311.188,19.857 311.593,19.681 311.667 C 19.315 311.820,17.600 315.387,17.600 315.996 C 17.600 316.218,17.420 316.400,17.200 316.400 C 16.980 316.400,16.800 316.850,16.800 317.400 C 16.800 317.950,16.620 318.400,16.400 318.400 C 16.180 318.400,16.000 318.760,16.000 319.200 C 16.000 319.640,15.820 320.000,15.600 320.000 C 15.380 320.000,15.200 320.360,15.200 320.800 C 15.200 321.240,15.020 321.600,14.800 321.600 C 14.580 321.600,14.400 322.140,14.400 322.800 C 14.400 323.460,14.220 324.000,14.000 324.000 C 13.780 324.000,13.600 324.360,13.600 324.800 C 13.600 325.240,13.420 325.600,13.200 325.600 C 12.980 325.600,12.800 326.129,12.800 326.776 C 12.800 327.423,12.620 328.064,12.400 328.200 C 12.180 328.336,12.000 328.797,12.000 329.224 C 12.000 329.651,11.820 330.000,11.600 330.000 C 11.380 330.000,11.200 330.349,11.200 330.776 C 11.200 331.203,11.033 331.656,10.828 331.783 C 10.623 331.909,10.333 333.000,10.182 334.206 C 10.031 335.413,9.749 336.400,9.554 336.400 C 9.359 336.400,9.200 336.940,9.200 337.600 C 9.200 338.260,9.020 338.800,8.800 338.800 C 8.580 338.800,8.400 339.340,8.400 340.000 C 8.400 340.660,8.220 341.200,8.000 341.200 C 7.780 341.200,7.600 341.729,7.600 342.376 C 7.600 343.023,7.420 343.664,7.200 343.800 C 6.980 343.936,6.800 344.667,6.800 345.424 C 6.800 346.181,6.620 346.800,6.400 346.800 C 6.180 346.800,6.000 347.419,6.000 348.176 C 6.000 348.933,5.820 349.664,5.600 349.800 C 5.380 349.936,5.200 350.667,5.200 351.424 C 5.200 352.181,5.020 352.800,4.800 352.800 C 4.580 352.800,4.400 353.509,4.400 354.376 C 4.400 355.243,4.220 356.064,4.000 356.200 C 3.780 356.336,3.600 357.247,3.600 358.224 C 3.600 359.201,3.420 360.000,3.200 360.000 C 2.980 360.000,2.800 360.889,2.800 361.976 C 2.800 363.063,2.620 364.064,2.400 364.200 C 2.180 364.336,2.000 365.517,2.000 366.824 C 2.000 368.141,1.822 369.200,1.600 369.200 C 1.372 369.200,1.200 370.389,1.200 371.967 C 1.200 373.593,1.022 374.793,0.768 374.877 C 0.477 374.974,0.261 379.114,0.106 387.511 L -0.123 400.000 15.938 400.000 C 24.772 400.000,32.034 399.955,32.075 399.900 C 32.116 399.845,32.289 396.290,32.460 392.000 C 32.869 381.751,33.179 377.883,33.630 377.420 C 33.834 377.211,34.000 375.996,34.000 374.720 C 34.000 373.440,34.179 372.400,34.400 372.400 C 34.620 372.400,34.800 371.511,34.800 370.424 C 34.800 369.337,34.980 368.336,35.200 368.200 C 35.420 368.064,35.600 367.164,35.600 366.200 C 35.600 365.236,35.761 364.348,35.958 364.226 C 36.155 364.105,36.425 363.284,36.558 362.403 C 36.691 361.521,36.909 360.080,37.042 359.200 C 37.175 358.320,37.445 357.600,37.642 357.600 C 37.839 357.600,38.000 357.071,38.000 356.424 C 38.000 355.777,38.180 355.136,38.400 355.000 C 38.620 354.864,38.800 354.234,38.800 353.600 C 38.800 352.966,38.980 352.336,39.200 352.200 C 39.420 352.064,39.600 351.434,39.600 350.800 C 39.600 350.166,39.780 349.536,40.000 349.400 C 40.220 349.264,40.400 348.713,40.400 348.176 C 40.400 347.639,40.562 347.200,40.761 347.200 C 40.959 347.200,41.247 346.120,41.400 344.800 C 41.553 343.480,41.796 342.399,41.939 342.397 C 42.314 342.392,43.200 340.371,43.200 339.520 C 43.200 339.124,43.380 338.800,43.600 338.800 C 43.820 338.800,44.000 338.440,44.000 338.000 C 44.000 337.560,44.180 337.200,44.400 337.200 C 44.620 337.200,44.800 336.660,44.800 336.000 C 44.800 335.340,44.980 334.800,45.200 334.800 C 45.420 334.800,45.600 334.440,45.600 334.000 C 45.600 333.560,45.780 333.200,46.000 333.200 C 46.220 333.200,46.400 332.840,46.400 332.400 C 46.400 331.960,46.580 331.600,46.800 331.600 C 47.020 331.600,47.200 331.251,47.200 330.824 C 47.200 330.397,47.380 329.936,47.600 329.800 C 47.820 329.664,48.000 329.113,48.000 328.576 C 48.000 328.039,48.180 327.600,48.400 327.600 C 48.620 327.600,48.800 327.240,48.800 326.800 C 48.800 326.360,48.936 326.000,49.102 326.000 C 49.269 326.000,49.659 325.415,49.970 324.700 C 50.281 323.985,50.640 323.310,50.768 323.200 C 51.240 322.794,52.000 321.192,52.000 320.605 C 52.000 320.272,52.180 320.000,52.400 320.000 C 52.620 320.000,52.800 319.730,52.800 319.400 C 52.800 319.070,52.936 318.800,53.102 318.800 C 53.269 318.800,53.659 318.215,53.970 317.500 C 54.281 316.785,54.640 316.110,54.768 316.000 C 54.896 315.890,55.441 314.990,55.981 314.000 C 57.021 312.092,58.521 309.719,59.194 308.917 C 59.417 308.651,59.600 308.196,59.600 307.905 C 59.600 307.614,59.960 307.117,60.400 306.800 C 60.840 306.483,61.200 305.993,61.200 305.712 C 61.200 305.430,61.380 305.200,61.600 305.200 C 61.820 305.200,62.000 304.975,62.001 304.700 C 62.001 304.425,62.541 303.570,63.200 302.800 C 63.859 302.030,64.399 301.247,64.399 301.060 C 64.400 300.874,64.940 300.217,65.600 299.600 C 66.260 298.983,66.800 298.281,66.800 298.040 C 66.800 297.798,66.980 297.600,67.200 297.600 C 67.420 297.600,67.600 297.396,67.600 297.147 C 67.600 296.898,67.924 296.403,68.319 296.047 C 68.714 295.691,69.476 294.770,70.012 294.000 C 70.548 293.230,71.933 291.610,73.088 290.400 C 74.244 289.190,75.192 288.049,75.195 287.864 C 75.198 287.679,77.000 285.752,79.200 283.581 C 81.400 281.410,83.200 279.446,83.200 279.217 C 83.200 278.988,83.360 278.800,83.556 278.800 C 83.752 278.800,84.883 277.844,86.071 276.676 C 87.258 275.507,88.549 274.428,88.940 274.278 C 89.331 274.128,89.536 273.820,89.396 273.593 C 89.255 273.366,89.289 273.228,89.470 273.287 C 89.965 273.447,91.636 272.169,91.331 271.864 C 91.186 271.719,91.290 271.600,91.562 271.600 C 92.169 271.600,93.230 270.589,92.981 270.248 C 92.881 270.111,92.914 270.084,93.053 270.186 C 93.504 270.519,94.830 269.573,94.549 269.118 C 94.385 268.851,94.460 268.790,94.739 268.962 C 95.021 269.137,95.357 268.839,95.601 268.198 C 96.182 266.670,96.110 266.490,95.000 266.702 C 94.450 266.807,94.000 267.052,94.000 267.247 C 94.000 267.447,84.886 267.600,73.000 267.600 C 61.450 267.600,52.000 267.460,52.000 267.288 C 52.000 267.117,52.360 266.717,52.799 266.401 C 53.298 266.041,53.513 265.557,53.372 265.112 C 53.224 264.644,53.353 264.400,53.749 264.400 C 54.081 264.400,54.483 264.189,54.642 263.932 C 54.832 263.625,54.719 263.545,54.314 263.701 C 53.975 263.831,53.528 263.768,53.320 263.560 C 53.083 263.323,52.595 263.484,52.010 263.991 M298.027 263.904 C 298.760 264.417,299.055 264.436,299.756 264.015 C 300.453 263.594,300.513 263.598,300.100 264.033 C 299.443 264.726,299.466 265.200,300.157 265.200 C 300.731 265.200,301.380 264.047,301.013 263.679 C 300.900 263.566,299.983 263.431,298.975 263.379 C 297.217 263.289,297.179 263.310,298.027 263.904 M98.800 263.933 C 98.800 264.190,98.459 264.400,98.043 264.400 C 97.247 264.400,96.734 265.193,96.555 266.700 C 96.491 267.237,96.663 267.600,96.981 267.600 C 97.640 267.600,98.058 266.623,97.602 266.149 C 97.418 265.957,97.542 265.549,97.879 265.242 C 98.414 264.754,98.458 264.787,98.229 265.508 C 98.078 265.984,98.169 266.457,98.446 266.628 C 98.748 266.815,98.818 266.754,98.638 266.462 C 98.468 266.187,98.610 266.000,98.990 266.000 C 99.436 266.000,99.588 265.705,99.495 265.015 C 99.358 263.988,98.800 263.120,98.800 263.933 M347.400 264.000 C 347.536 264.220,347.232 264.414,346.724 264.432 C 346.216 264.449,346.026 264.554,346.302 264.666 C 346.579 264.777,346.697 265.043,346.566 265.255 C 346.434 265.468,346.703 265.969,347.163 266.368 C 347.623 266.767,348.000 267.208,348.000 267.347 C 348.000 267.845,306.078 267.635,305.912 267.137 C 305.681 266.444,303.600 267.086,303.600 267.850 C 303.600 268.245,303.823 268.400,304.187 268.260 C 304.510 268.136,304.898 268.235,305.049 268.479 C 305.221 268.758,305.140 268.810,304.832 268.620 C 304.472 268.397,304.481 268.540,304.866 269.157 C 305.345 269.924,305.415 269.937,305.667 269.299 C 305.819 268.914,305.957 268.780,305.972 269.000 C 306.030 269.805,307.914 271.654,308.129 271.117 C 308.279 270.745,308.346 270.769,308.368 271.203 C 308.396 271.729,311.200 274.682,311.200 274.185 C 311.200 274.081,311.990 274.797,312.955 275.776 C 313.921 276.755,314.821 277.446,314.955 277.311 C 315.090 277.177,315.200 277.282,315.200 277.546 C 315.200 277.809,317.540 280.347,320.400 283.185 C 323.260 286.023,325.600 288.548,325.600 288.796 C 325.600 289.044,325.780 289.136,326.000 289.000 C 326.220 288.864,326.400 288.951,326.400 289.193 C 326.400 289.668,326.614 289.944,328.900 292.413 C 329.725 293.305,330.400 294.200,330.400 294.404 C 330.400 294.607,331.030 295.403,331.800 296.173 C 332.570 296.943,333.200 297.761,333.200 297.990 C 333.200 298.220,333.740 298.972,334.400 299.663 C 335.060 300.354,335.600 301.122,335.600 301.371 C 335.600 301.620,335.960 302.083,336.400 302.400 C 336.840 302.717,337.200 303.124,337.200 303.305 C 337.200 303.486,337.531 303.989,337.936 304.423 C 338.341 304.858,338.926 305.705,339.236 306.307 C 339.546 306.908,339.980 307.605,340.200 307.855 C 341.523 309.361,342.000 310.067,342.000 310.516 C 342.000 310.795,342.360 311.283,342.800 311.600 C 343.240 311.917,343.600 312.457,343.600 312.799 C 343.600 313.142,343.870 313.807,344.199 314.278 C 344.942 315.338,347.229 319.467,348.698 322.400 C 349.304 323.610,349.935 324.660,350.100 324.733 C 350.265 324.807,350.400 325.122,350.400 325.433 C 350.400 325.745,350.580 326.000,350.800 326.000 C 351.020 326.000,351.200 326.253,351.200 326.562 C 351.200 327.047,351.752 328.320,353.250 331.295 C 353.443 331.677,353.600 332.262,353.600 332.595 C 353.600 332.928,353.780 333.200,354.000 333.200 C 354.220 333.200,354.400 333.560,354.400 334.000 C 354.400 334.440,354.580 334.800,354.800 334.800 C 355.020 334.800,355.200 335.239,355.200 335.776 C 355.200 336.313,355.380 336.864,355.600 337.000 C 355.820 337.136,356.000 337.597,356.000 338.024 C 356.000 338.451,356.180 338.800,356.400 338.800 C 356.620 338.800,356.800 339.124,356.800 339.520 C 356.800 340.414,357.694 342.393,358.100 342.397 C 358.265 342.399,358.400 342.940,358.400 343.600 C 358.400 344.260,358.580 344.800,358.800 344.800 C 359.020 344.800,359.200 345.340,359.200 346.000 C 359.200 346.660,359.362 347.200,359.561 347.200 C 359.759 347.200,360.047 348.280,360.200 349.601 C 360.353 350.921,360.641 352.102,360.839 352.224 C 361.038 352.347,361.200 352.977,361.200 353.624 C 361.200 354.271,361.360 354.800,361.556 354.800 C 361.891 354.800,362.117 355.722,362.658 359.303 C 362.782 360.129,363.045 360.905,363.242 361.026 C 363.439 361.148,363.600 361.957,363.600 362.824 C 363.600 363.691,363.762 364.400,363.960 364.400 C 364.307 364.400,364.577 365.863,365.050 370.300 C 365.173 371.455,365.437 372.400,365.637 372.400 C 365.837 372.400,366.000 373.570,366.000 375.000 C 366.000 376.430,366.166 377.600,366.370 377.600 C 366.817 377.600,367.139 381.647,367.516 392.000 L 367.800 399.800 383.964 399.905 L 400.128 400.009 399.881 387.510 C 399.721 379.403,399.488 374.963,399.217 374.872 C 398.982 374.794,398.800 373.539,398.800 371.990 C 398.800 370.482,398.620 369.136,398.400 369.000 C 398.180 368.864,398.000 367.773,398.000 366.576 C 398.000 365.379,397.820 364.400,397.600 364.400 C 397.380 364.400,397.200 363.410,397.200 362.200 C 397.200 360.990,397.020 360.000,396.800 360.000 C 396.580 360.000,396.400 359.201,396.400 358.224 C 396.400 357.247,396.220 356.336,396.000 356.200 C 395.780 356.064,395.600 355.243,395.600 354.376 C 395.600 353.509,395.420 352.800,395.200 352.800 C 394.980 352.800,394.800 352.181,394.800 351.424 C 394.800 350.667,394.620 349.936,394.400 349.800 C 394.180 349.664,394.000 348.933,394.000 348.176 C 394.000 347.419,393.820 346.800,393.600 346.800 C 393.380 346.800,393.200 346.260,393.200 345.600 C 393.200 344.940,393.020 344.400,392.800 344.400 C 392.580 344.400,392.400 343.680,392.400 342.800 C 392.400 341.920,392.220 341.200,392.000 341.200 C 391.780 341.200,391.600 340.753,391.600 340.206 C 391.600 339.350,389.416 332.162,388.438 329.800 C 387.380 327.245,387.072 326.531,386.753 325.905 C 386.559 325.523,386.400 324.938,386.400 324.605 C 386.400 324.272,386.220 324.000,386.000 324.000 C 385.780 324.000,385.600 323.460,385.600 322.800 C 385.600 322.140,385.464 321.600,385.298 321.600 C 385.131 321.600,384.760 321.015,384.471 320.300 C 384.183 319.585,383.779 318.687,383.574 318.305 C 383.368 317.923,383.200 317.328,383.200 316.982 C 383.200 316.636,383.020 316.464,382.800 316.600 C 382.580 316.736,382.400 316.494,382.400 316.061 C 382.400 315.227,380.806 311.892,380.300 311.667 C 380.135 311.593,380.000 311.188,380.000 310.767 C 380.000 310.345,379.820 310.000,379.600 310.000 C 379.380 310.000,379.200 309.640,379.200 309.200 C 379.200 308.760,379.020 308.400,378.800 308.400 C 378.580 308.400,378.400 308.040,378.400 307.600 C 378.400 307.160,378.220 306.800,378.000 306.800 C 377.780 306.800,377.600 306.440,377.600 306.000 C 377.600 305.560,377.441 305.200,377.248 305.200 C 377.054 305.200,376.229 303.851,375.415 302.203 C 374.600 300.555,373.766 299.102,373.560 298.976 C 373.355 298.849,373.278 298.598,373.389 298.418 C 373.500 298.238,373.323 297.868,372.996 297.596 C 372.668 297.324,372.400 296.873,372.400 296.594 C 372.400 296.314,372.119 295.978,371.775 295.846 C 371.431 295.714,371.244 295.452,371.361 295.263 C 371.477 295.075,371.219 294.541,370.786 294.077 C 370.354 293.613,370.000 292.996,370.000 292.705 C 370.000 292.414,369.640 291.917,369.200 291.600 C 368.760 291.283,368.400 290.703,368.400 290.312 C 368.400 289.920,368.250 289.600,368.068 289.600 C 367.885 289.600,367.481 289.105,367.170 288.500 C 366.860 287.895,366.333 287.130,366.000 286.800 C 365.667 286.470,365.140 285.705,364.830 285.100 C 364.519 284.495,364.115 284.000,363.932 284.000 C 363.750 284.000,363.596 283.775,363.591 283.500 C 363.586 283.225,363.001 282.346,362.291 281.547 C 359.918 278.876,358.815 277.404,358.807 276.900 C 358.803 276.625,358.560 276.400,358.268 276.400 C 357.975 276.400,357.494 275.950,357.200 275.400 C 356.906 274.850,356.515 274.400,356.332 274.400 C 356.150 274.400,356.000 274.049,356.000 273.620 C 356.000 273.191,355.685 272.656,355.300 272.432 C 354.915 272.208,354.743 272.019,354.918 272.012 C 355.431 271.993,353.285 270.000,352.752 270.000 C 352.485 270.000,352.386 269.881,352.531 269.736 C 352.676 269.590,352.391 269.261,351.898 269.003 C 351.404 268.745,351.043 268.331,351.095 268.082 C 351.148 267.831,350.925 267.731,350.595 267.857 C 350.228 267.998,349.981 267.839,349.950 267.443 C 349.842 266.052,349.387 265.200,348.753 265.200 C 348.533 265.200,348.472 265.393,348.618 265.630 C 348.765 265.867,348.518 265.831,348.068 265.549 C 347.226 265.024,347.285 264.165,348.128 264.670 C 348.397 264.832,348.364 264.662,348.051 264.277 C 347.457 263.544,346.998 263.349,347.400 264.000 M301.200 265.000 C 301.200 265.330,300.990 265.600,300.733 265.600 C 300.477 265.600,300.382 265.716,300.524 265.857 C 300.665 265.998,301.063 265.880,301.407 265.594 C 301.922 265.167,302.121 265.167,302.517 265.596 C 302.836 265.941,302.845 266.030,302.542 265.861 C 302.290 265.720,301.977 265.883,301.846 266.223 C 301.716 266.563,301.775 266.739,301.977 266.614 C 302.179 266.489,302.447 266.553,302.573 266.756 C 302.846 267.199,304.400 266.856,304.400 266.353 C 304.400 265.850,303.854 265.917,303.199 266.500 C 302.724 266.924,302.717 266.896,303.159 266.311 C 303.592 265.738,303.576 265.519,303.068 265.011 C 302.286 264.229,301.200 264.222,301.200 265.000 " stroke="none" fill="#0cb4e4" fill-rule="evenodd"></path><path id="path3" d="M297.219 52.623 C 297.503 52.965,297.570 53.206,297.368 53.159 C 297.165 53.112,296.719 53.198,296.376 53.350 C 296.032 53.503,286.987 53.576,276.276 53.514 C 265.564 53.451,256.800 53.507,256.800 53.639 C 256.800 53.994,258.250 55.600,258.571 55.600 C 258.723 55.600,258.736 55.420,258.600 55.200 C 258.464 54.980,258.633 54.800,258.976 54.800 C 259.319 54.800,259.555 55.025,259.500 55.300 C 259.445 55.575,259.670 55.758,260.000 55.706 C 260.496 55.629,260.489 55.692,259.957 56.068 C 259.228 56.585,260.057 58.000,261.089 58.000 C 261.370 58.000,261.600 58.321,261.600 58.714 C 261.600 59.106,262.140 59.746,262.800 60.136 C 263.460 60.526,264.000 61.116,264.000 61.446 C 264.000 61.799,264.191 61.929,264.462 61.762 C 264.747 61.585,264.815 61.652,264.639 61.936 C 264.480 62.194,264.805 62.814,265.377 63.344 C 265.940 63.865,266.400 64.418,266.400 64.573 C 266.400 64.907,268.333 67.547,269.202 68.400 C 269.539 68.730,270.244 69.855,270.770 70.900 C 271.296 71.945,271.877 72.800,272.063 72.800 C 272.248 72.800,272.400 73.160,272.400 73.600 C 272.400 74.040,272.580 74.400,272.800 74.400 C 273.020 74.400,273.200 74.681,273.200 75.024 C 273.200 75.367,273.380 75.536,273.600 75.400 C 273.827 75.260,274.000 75.596,274.000 76.176 C 274.000 76.739,274.180 77.200,274.400 77.200 C 274.620 77.200,274.800 77.560,274.800 78.000 C 274.800 78.440,274.980 78.800,275.200 78.800 C 275.420 78.800,275.600 79.070,275.600 79.400 C 275.600 79.730,275.780 80.000,276.000 80.000 C 276.220 80.000,276.400 80.439,276.400 80.976 C 276.400 81.513,276.580 82.064,276.800 82.200 C 277.020 82.336,277.200 82.797,277.200 83.224 C 277.200 83.651,277.341 84.000,277.514 84.000 C 277.687 84.000,277.856 84.315,277.889 84.700 C 277.922 85.085,278.591 87.269,279.375 89.553 C 280.159 91.836,280.800 94.121,280.800 94.629 C 280.800 95.137,280.980 95.664,281.200 95.800 C 281.420 95.936,281.600 96.742,281.600 97.590 C 281.600 98.439,281.768 99.193,281.974 99.267 C 282.180 99.340,282.451 100.390,282.578 101.600 C 282.705 102.810,282.943 104.880,283.107 106.200 C 283.272 107.520,283.380 109.635,283.348 110.900 C 283.316 112.165,283.412 113.200,283.562 113.200 C 283.827 113.200,283.788 115.591,283.464 119.200 C 283.375 120.190,283.391 120.755,283.499 120.455 C 283.666 119.994,283.751 119.994,284.042 120.455 C 284.298 120.859,284.389 120.775,284.394 120.133 C 284.397 119.657,284.209 119.203,283.976 119.125 C 283.702 119.034,283.772 118.561,284.174 117.792 C 284.515 117.136,284.796 116.825,284.798 117.100 C 284.801 117.786,314.208 117.834,314.632 117.149 C 314.820 116.844,315.038 116.925,315.302 117.396 C 315.574 117.883,315.545 118.187,315.204 118.398 C 314.881 118.597,314.855 118.787,315.130 118.957 C 315.358 119.098,315.626 119.075,315.726 118.907 C 316.121 118.241,315.999 102.753,315.602 102.999 C 315.345 103.157,315.200 102.079,315.200 100.024 C 315.200 98.141,315.034 96.800,314.800 96.800 C 314.580 96.800,314.400 95.900,314.400 94.800 C 314.400 93.700,314.220 92.800,314.000 92.800 C 313.780 92.800,313.600 92.001,313.600 91.024 C 313.600 90.047,313.420 89.136,313.200 89.000 C 312.980 88.864,312.800 88.043,312.800 87.176 C 312.800 86.309,312.620 85.600,312.400 85.600 C 312.180 85.600,312.000 85.071,312.000 84.424 C 312.000 83.777,311.820 83.136,311.600 83.000 C 311.380 82.864,311.200 82.213,311.200 81.553 C 311.200 80.855,311.033 80.456,310.800 80.600 C 310.574 80.740,310.400 80.412,310.400 79.847 C 310.400 79.297,310.220 78.736,310.000 78.600 C 309.780 78.464,309.600 77.733,309.600 76.976 C 309.600 76.219,309.420 75.600,309.200 75.600 C 308.980 75.600,308.800 75.335,308.800 75.011 C 308.800 74.687,308.452 73.652,308.027 72.711 C 307.229 70.945,306.806 69.752,306.843 69.375 C 306.855 69.255,306.576 68.717,306.223 68.179 C 305.870 67.641,305.721 67.197,305.891 67.194 C 306.061 67.191,305.990 67.054,305.734 66.892 C 305.478 66.729,304.619 65.246,303.826 63.598 C 302.146 60.108,301.557 59.067,300.717 58.103 C 300.380 57.716,300.200 57.130,300.317 56.800 C 300.502 56.280,300.439 56.275,299.848 56.763 C 299.335 57.187,299.052 57.212,298.707 56.867 C 298.150 56.310,297.923 55.105,298.435 55.422 C 298.636 55.546,298.800 55.356,298.800 55.000 C 298.800 54.589,298.618 54.462,298.300 54.653 C 297.960 54.857,297.976 54.737,298.349 54.277 C 298.651 53.905,298.717 53.600,298.496 53.600 C 298.274 53.600,297.999 53.240,297.884 52.800 C 297.769 52.360,297.456 52.000,297.188 52.000 C 296.820 52.000,296.827 52.150,297.219 52.623 M102.796 53.534 C 102.576 53.608,102.484 53.813,102.593 53.989 C 102.702 54.165,102.498 54.285,102.139 54.255 C 101.780 54.225,101.400 54.444,101.296 54.742 C 101.158 55.135,101.338 55.210,101.953 55.015 C 102.473 54.850,102.800 54.920,102.800 55.197 C 102.800 55.444,102.620 55.536,102.400 55.400 C 102.180 55.264,102.000 55.371,102.000 55.638 C 102.000 55.940,101.696 55.849,101.200 55.400 C 100.760 55.002,100.400 54.874,100.400 55.115 C 100.400 55.357,100.768 55.812,101.218 56.128 C 101.907 56.610,101.938 56.738,101.418 56.938 C 101.078 57.068,100.800 56.971,100.800 56.721 C 100.800 56.231,100.369 56.517,100.278 57.067 C 100.248 57.250,99.725 57.887,99.117 58.481 C 98.378 59.204,98.098 59.791,98.275 60.251 C 98.468 60.755,98.378 60.877,97.939 60.709 C 97.496 60.539,97.148 61.039,96.609 62.626 C 96.208 63.806,95.727 64.678,95.540 64.563 C 95.353 64.447,95.200 64.713,95.200 65.153 C 95.200 65.593,95.020 66.064,94.800 66.200 C 94.580 66.336,94.400 66.797,94.400 67.224 C 94.400 67.651,94.220 68.000,94.000 68.000 C 93.780 68.000,93.600 68.450,93.600 69.000 C 93.600 69.550,93.420 70.000,93.200 70.000 C 92.980 70.000,92.800 70.360,92.800 70.800 C 92.800 71.240,92.659 71.600,92.487 71.600 C 92.315 71.600,92.134 72.095,92.084 72.700 C 92.034 73.305,91.815 73.860,91.597 73.933 C 91.378 74.007,91.200 74.592,91.200 75.233 C 91.200 75.875,91.020 76.400,90.800 76.400 C 90.580 76.400,90.400 76.760,90.400 77.200 C 90.400 77.640,90.220 78.000,90.000 78.000 C 89.780 78.000,89.600 78.540,89.600 79.200 C 89.600 79.860,89.420 80.400,89.200 80.400 C 88.980 80.400,88.800 81.030,88.800 81.800 C 88.800 82.570,88.620 83.200,88.400 83.200 C 88.180 83.200,88.000 83.729,88.000 84.376 C 88.000 85.023,87.820 85.664,87.600 85.800 C 87.380 85.936,87.200 86.637,87.200 87.357 C 87.200 88.077,87.075 88.792,86.922 88.945 C 86.626 89.241,86.477 89.925,86.325 91.700 C 86.272 92.305,86.088 92.800,85.915 92.800 C 85.742 92.800,85.600 93.801,85.600 95.024 C 85.600 96.404,85.448 97.153,85.200 97.000 C 84.948 96.844,84.800 97.788,84.800 99.553 C 84.800 101.093,84.629 102.458,84.420 102.588 C 83.851 102.940,83.987 117.980,84.558 117.761 C 86.292 117.095,116.023 117.442,116.241 118.130 C 116.369 118.532,116.577 118.756,116.704 118.630 C 116.831 118.503,116.738 117.994,116.497 117.499 C 115.950 116.372,115.614 114.361,116.015 114.609 C 116.582 114.960,116.848 112.740,116.317 112.085 C 115.927 111.603,115.922 111.520,116.300 111.747 C 116.610 111.933,116.800 111.823,116.800 111.457 C 116.800 111.132,116.594 110.798,116.343 110.714 C 115.999 110.600,115.999 110.348,116.343 109.707 C 116.594 109.237,116.800 107.761,116.800 106.426 C 116.800 105.075,116.977 104.000,117.200 104.000 C 117.422 104.000,117.600 102.941,117.600 101.624 C 117.600 100.317,117.760 99.148,117.956 99.027 C 118.151 98.906,118.421 98.131,118.555 97.304 C 118.688 96.477,118.870 95.412,118.959 94.937 C 119.164 93.849,120.003 91.195,120.398 90.387 C 120.563 90.050,120.846 89.150,121.027 88.387 C 121.452 86.589,121.373 86.822,122.136 85.113 C 122.501 84.295,122.800 83.361,122.800 83.036 C 122.800 82.712,122.995 82.327,123.233 82.180 C 123.775 81.844,125.200 78.567,125.200 77.655 C 125.200 77.282,125.560 76.717,126.000 76.400 C 126.440 76.083,126.800 75.503,126.800 75.112 C 126.800 74.720,126.980 74.400,127.200 74.400 C 127.420 74.400,127.600 74.122,127.600 73.783 C 127.600 73.444,127.960 72.780,128.400 72.308 C 128.840 71.836,129.200 71.213,129.200 70.925 C 129.200 70.636,129.380 70.400,129.600 70.400 C 129.820 70.400,130.000 70.130,130.000 69.800 C 130.000 69.470,130.180 69.200,130.400 69.200 C 130.620 69.200,130.800 68.970,130.800 68.688 C 130.800 68.407,131.160 67.917,131.600 67.600 C 132.040 67.283,132.400 66.793,132.400 66.512 C 132.400 66.230,132.562 66.000,132.761 66.000 C 132.959 66.000,133.310 65.460,133.540 64.800 C 133.770 64.140,134.148 63.600,134.379 63.600 C 134.611 63.600,134.800 63.319,134.800 62.976 C 134.800 62.633,134.961 62.452,135.158 62.574 C 135.510 62.792,136.188 61.688,136.064 61.100 C 136.029 60.935,136.225 60.845,136.500 60.900 C 136.779 60.956,136.948 60.691,136.882 60.300 C 136.802 59.823,137.026 59.600,137.582 59.600 C 138.032 59.600,138.422 59.420,138.450 59.200 C 138.478 58.980,138.531 58.575,138.568 58.300 C 138.606 58.025,138.884 57.855,139.186 57.923 C 139.639 58.024,139.644 57.935,139.219 57.423 C 138.789 56.904,138.807 56.800,139.327 56.800 C 139.671 56.800,140.081 56.592,140.238 56.338 C 140.415 56.052,140.348 55.985,140.062 56.162 C 139.334 56.611,139.522 56.078,140.400 55.200 C 141.353 54.247,141.658 54.182,141.345 55.000 C 141.191 55.402,141.360 55.598,141.857 55.594 C 142.417 55.589,142.469 55.505,142.066 55.249 C 141.772 55.063,141.547 54.796,141.566 54.655 C 141.585 54.515,141.600 54.223,141.600 54.008 C 141.600 53.648,103.835 53.187,102.796 53.534 M142.000 53.624 C 142.000 53.857,142.165 53.945,142.366 53.821 C 142.567 53.697,142.823 53.821,142.934 54.098 C 143.091 54.487,143.144 54.482,143.168 54.076 C 143.186 53.788,143.380 53.664,143.600 53.800 C 143.820 53.936,144.000 53.857,144.000 53.624 C 144.000 53.391,143.550 53.200,143.000 53.200 C 142.450 53.200,142.000 53.391,142.000 53.624 M115.200 119.213 C 115.200 119.439,115.469 119.728,115.798 119.854 C 116.126 119.981,116.279 120.273,116.136 120.504 C 115.984 120.749,116.069 120.805,116.338 120.638 C 117.003 120.227,116.906 119.326,116.167 119.043 C 115.310 118.714,115.200 118.733,115.200 119.213 " stroke="none" fill="#23e4ad" fill-rule="evenodd"></path><path id="path4" d="M116.279 109.757 C 116.115 110.174,116.075 110.609,116.191 110.724 C 116.555 111.089,116.876 110.491,116.724 109.731 C 116.583 109.035,116.562 109.036,116.279 109.757 M116.162 111.938 C 116.319 112.192,116.257 112.400,116.024 112.400 C 115.791 112.400,115.600 112.670,115.600 113.000 C 115.600 113.330,115.810 113.600,116.067 113.600 C 116.323 113.600,116.415 113.482,116.270 113.337 C 116.125 113.192,116.194 112.848,116.423 112.572 C 116.715 112.221,116.695 111.983,116.358 111.774 C 116.053 111.585,115.981 111.645,116.162 111.938 M284.092 117.910 C 283.764 118.610,283.728 119.043,283.992 119.131 C 284.216 119.205,284.400 119.646,284.400 120.110 C 284.400 120.901,284.368 120.909,283.878 120.239 C 283.432 119.630,283.350 120.026,283.317 122.937 C 283.296 124.814,283.159 126.543,283.012 126.781 C 282.865 127.018,282.647 128.335,282.527 129.706 C 282.407 131.078,282.150 132.260,281.955 132.333 C 281.760 132.407,281.600 132.836,281.600 133.287 C 281.600 133.738,281.406 134.848,281.168 135.754 C 280.931 136.659,280.553 138.120,280.329 139.000 C 280.105 139.880,279.760 140.913,279.561 141.295 C 279.362 141.677,279.200 142.262,279.200 142.595 C 279.200 142.928,279.026 143.200,278.813 143.200 C 278.599 143.200,278.518 143.441,278.631 143.736 C 278.744 144.031,278.569 144.494,278.242 144.765 C 277.915 145.036,277.739 145.498,277.852 145.791 C 277.964 146.083,277.683 147.094,277.228 148.037 C 276.773 148.979,276.400 149.986,276.400 150.275 C 276.400 150.564,276.220 150.800,276.000 150.800 C 275.780 150.800,275.600 151.250,275.600 151.800 C 275.600 152.350,275.420 152.800,275.200 152.800 C 274.980 152.800,274.800 153.081,274.800 153.424 C 274.800 153.767,274.620 153.936,274.400 153.800 C 274.180 153.664,274.000 153.836,274.000 154.182 C 274.000 154.876,273.288 156.257,272.476 157.138 C 272.187 157.450,271.673 158.402,271.332 159.253 C 270.992 160.104,270.553 160.800,270.357 160.800 C 270.160 160.800,270.000 161.081,270.000 161.424 C 270.000 161.793,269.812 161.931,269.538 161.762 C 269.261 161.591,269.185 161.652,269.347 161.914 C 269.496 162.155,269.209 162.733,268.709 163.199 C 268.209 163.665,267.800 164.170,267.799 164.323 C 267.798 164.945,265.912 167.193,265.569 166.981 C 265.366 166.856,265.200 167.055,265.200 167.424 C 265.200 168.204,262.809 171.053,262.291 170.890 C 262.098 170.830,262.031 170.926,262.141 171.104 C 262.251 171.282,261.814 172.031,261.170 172.768 C 260.527 173.505,259.997 174.309,259.994 174.554 C 259.991 174.799,259.813 174.730,259.600 174.400 C 259.387 174.070,259.209 173.980,259.206 174.200 C 259.198 174.679,256.303 178.000,255.894 178.000 C 255.736 178.000,255.046 178.585,254.360 179.300 C 253.675 180.015,252.845 180.543,252.517 180.473 C 252.188 180.404,252.015 180.501,252.131 180.689 C 252.248 180.878,251.816 181.385,251.173 181.816 C 250.529 182.247,250.002 182.836,250.001 183.124 C 250.001 183.412,249.840 183.549,249.645 183.428 C 249.450 183.307,249.061 183.485,248.781 183.823 C 248.501 184.160,247.991 184.329,247.648 184.197 C 247.305 184.065,247.145 184.079,247.293 184.226 C 247.619 184.552,246.637 185.600,246.005 185.600 C 245.756 185.600,245.683 185.811,245.842 186.068 C 246.036 186.381,245.915 186.453,245.476 186.285 C 245.095 186.138,244.683 186.280,244.490 186.624 C 244.309 186.949,243.777 187.289,243.308 187.379 C 242.840 187.469,242.077 187.923,241.612 188.388 C 240.591 189.409,238.892 190.104,238.305 189.741 C 238.051 189.584,237.993 189.665,238.162 189.938 C 238.319 190.192,238.237 190.400,237.981 190.400 C 237.724 190.400,237.610 190.650,237.727 190.955 C 237.879 191.351,237.708 191.449,237.129 191.297 C 236.683 191.181,236.185 191.300,236.023 191.563 C 235.861 191.825,235.339 192.069,234.864 192.105 C 234.389 192.141,234.000 192.312,234.000 192.485 C 234.000 192.967,234.881 192.857,236.093 192.225 C 236.752 191.881,237.280 191.807,237.423 192.038 C 237.854 192.734,286.914 192.475,286.647 191.778 C 286.525 191.460,286.599 191.200,286.813 191.200 C 287.026 191.200,287.200 191.470,287.200 191.800 C 287.200 192.130,287.380 192.400,287.600 192.400 C 287.820 192.400,287.955 192.175,287.900 191.900 C 287.845 191.625,288.004 191.438,288.253 191.484 C 288.502 191.531,288.815 191.024,288.948 190.358 C 289.107 189.564,289.353 189.247,289.663 189.439 C 289.989 189.641,290.051 189.511,289.863 189.021 C 289.655 188.478,289.743 188.369,290.240 188.560 C 290.706 188.739,290.824 188.638,290.657 188.205 C 290.515 187.834,290.653 187.600,291.013 187.600 C 291.339 187.600,291.600 187.234,291.600 186.776 C 291.600 186.323,291.780 186.064,292.000 186.200 C 292.220 186.336,292.400 186.244,292.400 185.995 C 292.400 185.746,292.625 185.306,292.900 185.016 C 293.877 183.987,294.744 182.852,295.189 182.020 C 295.437 181.557,295.811 181.283,296.020 181.412 C 296.229 181.542,296.400 181.277,296.400 180.824 C 296.400 180.371,296.550 180.000,296.732 180.000 C 296.915 180.000,297.319 179.505,297.630 178.900 C 297.940 178.295,298.538 177.485,298.958 177.100 C 299.379 176.715,299.599 176.400,299.448 176.400 C 299.298 176.400,299.658 175.545,300.249 174.500 C 300.840 173.455,301.539 172.198,301.801 171.706 C 302.064 171.214,302.396 170.929,302.539 171.073 C 302.683 171.216,302.800 171.042,302.800 170.685 C 302.800 169.617,303.687 168.007,304.126 168.278 C 304.373 168.431,304.436 168.272,304.285 167.877 C 304.147 167.517,304.296 166.961,304.617 166.640 C 304.938 166.319,305.200 165.774,305.200 165.429 C 305.200 165.083,305.391 164.800,305.624 164.800 C 305.857 164.800,305.944 164.632,305.817 164.428 C 305.691 164.223,305.773 163.940,306.000 163.800 C 306.227 163.660,306.309 163.377,306.183 163.172 C 306.056 162.968,306.138 162.800,306.364 162.800 C 306.590 162.800,306.672 162.532,306.546 162.203 C 306.415 161.863,306.592 161.501,306.956 161.361 C 307.308 161.227,307.506 160.971,307.396 160.794 C 307.069 160.264,307.650 159.184,308.110 159.468 C 308.370 159.629,308.444 159.491,308.299 159.114 C 308.169 158.775,308.273 158.269,308.531 157.990 C 308.898 157.593,308.870 157.552,308.400 157.800 C 307.912 158.058,307.894 158.016,308.300 157.579 C 308.575 157.282,308.800 156.626,308.800 156.120 C 308.800 155.614,308.980 155.200,309.200 155.200 C 309.420 155.200,309.600 154.739,309.600 154.176 C 309.600 153.596,309.773 153.260,310.000 153.400 C 310.238 153.547,310.400 153.071,310.400 152.224 C 310.400 151.441,310.580 150.800,310.800 150.800 C 311.020 150.800,311.200 150.159,311.200 149.376 C 311.200 148.529,311.362 148.053,311.600 148.200 C 311.838 148.347,312.000 147.879,312.000 147.047 C 312.000 146.277,312.180 145.536,312.400 145.400 C 312.620 145.264,312.800 144.443,312.800 143.576 C 312.800 142.709,312.980 142.000,313.200 142.000 C 313.420 142.000,313.600 141.472,313.600 140.826 C 313.600 140.180,313.770 139.205,313.978 138.658 C 314.186 138.112,314.410 136.767,314.477 135.670 C 314.543 134.573,314.733 133.759,314.899 133.861 C 315.065 133.964,315.200 132.787,315.200 131.247 C 315.200 129.707,315.359 128.349,315.553 128.229 C 315.747 128.109,315.900 125.944,315.893 123.419 C 315.886 120.893,315.739 118.914,315.568 119.020 C 315.396 119.126,315.142 119.030,315.004 118.807 C 314.866 118.583,314.924 118.400,315.134 118.400 C 315.343 118.400,315.622 118.121,315.753 117.779 C 315.889 117.423,315.822 117.263,315.595 117.403 C 315.378 117.537,315.200 117.421,315.200 117.144 C 315.200 116.752,315.093 116.747,314.720 117.120 C 314.112 117.728,284.942 117.819,284.733 117.213 C 284.660 117.000,284.371 117.314,284.092 117.910 M84.637 117.684 C 83.992 118.044,83.838 127.852,84.471 128.244 C 84.738 128.409,84.692 128.622,84.343 128.844 C 83.943 129.097,83.932 129.189,84.300 129.194 C 84.632 129.198,84.800 129.865,84.800 131.176 C 84.800 132.263,84.999 133.276,85.243 133.426 C 85.551 133.617,85.521 133.806,85.143 134.050 C 84.756 134.299,84.729 134.486,85.048 134.700 C 85.490 134.996,85.824 136.461,86.257 140.000 C 86.378 140.990,86.640 141.971,86.839 142.180 C 87.037 142.389,87.200 143.143,87.200 143.856 C 87.200 144.569,87.380 145.264,87.600 145.400 C 87.820 145.536,88.000 146.051,88.000 146.544 C 88.000 147.037,88.225 147.682,88.500 147.979 C 88.904 148.414,88.893 148.456,88.438 148.197 C 88.021 147.959,87.969 148.021,88.235 148.438 C 88.777 149.287,89.587 151.709,89.594 152.500 C 89.597 152.885,89.780 153.200,90.000 153.200 C 90.220 153.200,90.400 153.650,90.400 154.200 C 90.400 154.750,90.625 155.203,90.900 155.206 C 91.266 155.211,91.254 155.305,90.855 155.558 C 90.474 155.799,90.450 155.950,90.773 156.058 C 91.027 156.142,91.265 156.602,91.301 157.078 C 91.337 157.555,91.509 157.856,91.683 157.749 C 91.857 157.641,92.000 158.013,92.000 158.576 C 92.000 159.139,92.180 159.600,92.400 159.600 C 92.620 159.600,92.800 159.945,92.800 160.367 C 92.800 160.788,92.963 161.193,93.162 161.267 C 93.361 161.340,93.586 161.850,93.662 162.400 C 93.738 162.950,94.304 164.279,94.920 165.352 C 95.537 166.426,96.144 167.818,96.269 168.446 C 96.395 169.073,96.613 169.515,96.755 169.428 C 96.897 169.340,97.218 169.703,97.469 170.235 C 97.813 170.964,97.812 171.143,97.463 170.966 C 97.208 170.836,97.413 171.068,97.919 171.481 C 98.424 171.894,98.866 172.617,98.902 173.088 C 98.937 173.559,99.096 173.864,99.254 173.766 C 99.413 173.669,99.656 173.945,99.794 174.381 C 99.932 174.817,100.845 176.341,101.823 177.769 C 102.800 179.197,103.600 180.560,103.600 180.798 C 103.600 181.037,104.279 181.900,105.110 182.716 C 105.940 183.532,106.870 184.695,107.177 185.300 C 107.484 185.905,107.895 186.400,108.091 186.400 C 108.287 186.400,108.336 186.580,108.200 186.800 C 108.064 187.020,108.278 187.203,108.676 187.206 C 109.290 187.211,109.309 187.271,108.800 187.600 C 108.276 187.938,108.282 187.989,108.844 187.994 C 109.198 187.997,109.826 188.450,110.239 189.000 C 110.652 189.550,111.239 190.000,111.544 190.000 C 111.995 190.000,112.004 190.113,111.592 190.610 C 111.018 191.301,111.198 191.612,112.263 191.768 C 112.669 191.828,113.000 192.052,113.000 192.267 C 113.000 193.146,114.430 194.132,114.926 193.596 C 115.187 193.313,115.220 193.180,115.000 193.299 C 114.780 193.419,114.368 193.265,114.084 192.958 C 113.801 192.651,113.711 192.395,113.884 192.388 C 114.058 192.381,124.941 192.387,138.069 192.400 C 154.025 192.415,162.023 192.287,162.193 192.012 C 162.333 191.785,162.807 191.600,163.247 191.600 C 163.750 191.600,163.941 191.772,163.762 192.062 C 163.585 192.348,163.652 192.415,163.938 192.238 C 164.647 191.800,164.487 191.200,163.662 191.200 C 163.256 191.200,162.600 190.842,162.203 190.404 C 161.522 189.651,161.452 189.646,160.912 190.304 C 160.598 190.687,160.454 190.776,160.592 190.503 C 160.988 189.720,160.294 188.953,159.200 188.966 C 158.650 188.973,158.178 188.758,158.150 188.489 C 158.047 187.485,157.979 187.413,157.638 187.953 C 157.361 188.389,157.232 188.331,157.025 187.678 C 156.875 187.206,156.170 186.654,155.386 186.396 C 154.630 186.146,153.891 185.747,153.744 185.509 C 153.571 185.229,153.675 185.191,154.038 185.402 C 154.371 185.595,154.464 185.580,154.267 185.364 C 154.083 185.164,153.768 184.978,153.567 184.950 C 153.365 184.923,153.009 184.878,152.776 184.850 C 152.543 184.822,152.467 184.616,152.606 184.390 C 152.745 184.165,152.711 184.006,152.530 184.037 C 151.669 184.187,151.125 183.873,149.429 182.248 C 148.423 181.284,147.600 180.591,147.600 180.707 C 147.600 180.824,147.060 180.354,146.400 179.663 C 145.740 178.972,145.200 178.496,145.200 178.604 C 145.200 178.712,144.885 178.523,144.500 178.185 C 144.115 177.847,143.215 177.111,142.500 176.550 C 141.785 175.988,141.200 175.264,141.200 174.941 C 141.200 174.617,141.020 174.464,140.800 174.600 C 140.580 174.736,140.400 174.669,140.400 174.451 C 140.400 174.233,139.393 173.007,138.163 171.727 C 136.933 170.447,135.767 168.995,135.573 168.500 C 135.379 168.005,134.945 167.600,134.610 167.600 C 134.274 167.600,134.000 167.410,134.000 167.178 C 134.000 166.945,133.100 165.643,132.000 164.283 C 130.900 162.924,130.000 161.584,130.000 161.306 C 130.000 161.028,129.852 160.800,129.671 160.800 C 129.491 160.800,128.936 159.900,128.439 158.800 C 127.942 157.700,127.369 156.800,127.167 156.800 C 126.965 156.800,126.800 156.429,126.800 155.976 C 126.800 155.523,126.620 155.264,126.400 155.400 C 126.180 155.536,126.000 155.277,126.000 154.824 C 126.000 154.371,125.820 154.000,125.600 154.000 C 125.380 154.000,125.200 153.550,125.200 153.000 C 125.200 152.450,125.009 152.000,124.776 152.000 C 124.543 152.000,124.451 151.840,124.572 151.645 C 124.693 151.450,124.515 151.061,124.177 150.781 C 123.840 150.501,123.650 150.046,123.757 149.769 C 123.863 149.492,123.672 149.160,123.333 149.030 C 122.994 148.900,122.816 148.536,122.936 148.222 C 123.056 147.909,122.987 147.595,122.781 147.526 C 122.575 147.457,122.366 146.905,122.316 146.300 C 122.266 145.695,122.106 145.200,121.959 145.200 C 121.679 145.200,121.544 144.840,120.386 141.000 C 118.808 135.770,118.284 133.770,118.316 133.108 C 118.334 132.727,118.181 132.312,117.975 132.184 C 117.769 132.057,117.600 130.988,117.600 129.810 C 117.600 128.558,117.410 127.603,117.143 127.514 C 116.886 127.429,116.686 126.536,116.686 125.481 C 116.686 124.446,116.521 123.600,116.319 123.600 C 116.118 123.600,116.093 123.375,116.265 123.100 C 116.767 122.297,116.766 121.600,116.265 121.594 C 115.997 121.590,116.054 121.413,116.400 121.176 C 116.913 120.824,116.870 120.673,116.100 120.134 C 115.150 119.468,114.912 118.800,115.624 118.800 C 115.857 118.800,115.920 119.025,115.765 119.300 C 115.550 119.680,115.602 119.690,115.981 119.340 C 116.255 119.087,116.374 118.547,116.245 118.140 C 116.001 117.371,85.971 116.937,84.637 117.684 M232.000 193.300 C 232.000 193.612,232.275 193.867,232.611 193.867 C 233.303 193.867,233.200 193.133,232.475 192.892 C 232.214 192.805,232.000 192.988,232.000 193.300 M167.600 193.667 C 167.600 193.850,167.870 194.000,168.200 194.000 C 168.530 194.000,168.800 194.191,168.800 194.424 C 168.800 194.657,168.978 194.737,169.196 194.602 C 169.447 194.447,169.417 194.170,169.114 193.846 C 168.577 193.271,167.600 193.155,167.600 193.667 M227.800 194.800 C 227.936 195.020,228.307 195.200,228.624 195.200 C 228.941 195.200,229.200 195.020,229.200 194.800 C 229.200 194.580,228.829 194.400,228.376 194.400 C 227.923 194.400,227.664 194.580,227.800 194.800 M173.016 195.173 C 172.889 195.379,173.323 195.532,173.979 195.513 C 174.635 195.494,175.078 195.326,174.963 195.140 C 174.680 194.683,173.305 194.707,173.016 195.173 " stroke="none" fill="#1cd4bf" fill-rule="evenodd"></path></g></svg>